<?xml version="1.0" encoding="utf-8"?>
<!-- Generator: Adobe Illustrator 28.0.0, SVG Export Plug-In . SVG Version: 6.00 Build 0)  -->
<svg version="1.1" id="图层_1" xmlns="http://www.w3.org/2000/svg" xmlns:xlink="http://www.w3.org/1999/xlink" x="0px" y="0px"
	 viewBox="0 0 200 200" style="enable-background:new 0 0 200 200;" xml:space="preserve">
<style type="text/css">
	.st0{fill:#514262;}
</style>
<path class="st0" d="M100,29.1c-39.1,0-70.8,32.6-70.8,72.7c0,31.8,19.9,58.8,47.5,68.7c3.7,1,3.2-1.7,3.2-3.6v-12.6
	c-21.5,2.6-22.4-12-23.8-14.5c-2.9-5.1-9.8-6.4-7.8-8.8c4.9-2.6,9.9,0.7,15.6,9.4c4.2,6.3,12.3,5.2,16.5,4.2
	c0.9-3.8,2.8-7.2,5.5-9.9c-22.3-4.1-31.5-18.1-31.5-34.7c0-8.1,2.6-15.5,7.6-21.4c-3.2-9.8,0.3-18.2,0.8-19.5
	c9.2-0.8,18.7,6.7,19.5,7.3c5.2-1.4,11.2-2.2,17.9-2.2c6.7,0,12.7,0.8,18,2.2c1.8-1.4,10.6-7.9,19.2-7.2c0.5,1.2,3.9,9.5,0.9,19.2
	c5.1,6,7.8,13.5,7.8,21.5c0,16.7-9.3,30.6-31.7,34.7c3.7,3.7,6,9,6,14.8v18.3c0.2,1.5,0,2.9,2.4,2.9c28-9.7,48.2-36.9,48.2-69
	C170.8,61.7,139.1,29.1,100,29.1L100,29.1z"/>
</svg>
