<?xml version="1.0" encoding="utf-8"?>
<!-- Generator: Adobe Illustrator 28.0.0, SVG Export Plug-In . SVG Version: 6.00 Build 0)  -->
<svg version="1.1" id="图层_1" xmlns="http://www.w3.org/2000/svg" xmlns:xlink="http://www.w3.org/1999/xlink" x="0px" y="0px"
	 viewBox="0 0 200 200" style="enable-background:new 0 0 200 200;" xml:space="preserve">
<style type="text/css">
	.st0{fill:#514262;}
</style>
<g>
	<path class="st0" d="M159.5,40.5c-15-15-39.4-15.3-54.7-0.4L93.2,51.8c-2.2,2.2-2.2,5.4,0,7.6c2.2,2.2,5.4,2.2,7.7,0l11.6-11.7
		c10.9-10.6,28.4-10.6,39.4,0.4s10.9,28.8,0.3,39.8l-20,20.4c-5.9,5.9-13.8,8.8-21.9,8.4c-8-0.7-15.7-4.7-20.4-11.3
		c-1.8-2.5-5.1-2.9-7.7-1.1c-2.5,1.8-2.9,5.1-1,7.7c6.9,9.1,17.1,15,28.4,15.7h2.9c10.2,0,20.4-4,27.7-11.7l20-20.4
		C174.5,80.3,174.5,55.5,159.5,40.5L159.5,40.5z"/>
	<path class="st0" d="M98.7,140.9l-11.4,11.7c-10.9,10.6-28.4,10.6-39.4-0.4s-10.9-28.8-0.3-39.8l20-20.4c5.9-5.9,13.8-8.8,21.9-8.4
		c8,0.7,15.7,4.7,20.4,11.3c1.8,2.5,5.1,2.9,7.7,1.1c2.5-1.8,2.9-5.1,1.1-7.7c-6.9-9.1-17.1-15-28.4-15.7s-22.2,3.3-30.3,11.3
		l-20,20.5c-14.6,15.3-14.6,40.1,0.3,55.1c7.7,7.7,17.5,11.3,27.7,11.3c9.8,0,19.7-3.7,27.3-11l11.3-11.7c2.2-2.2,2.2-5.4,0-7.7
		C104.2,138.7,100.9,138.7,98.7,140.9L98.7,140.9z"/>
</g>
</svg>
