<?xml version="1.0" encoding="utf-8"?>
<!-- Generator: Adobe Illustrator 28.0.0, SVG Export Plug-In . SVG Version: 6.00 Build 0)  -->
<svg version="1.1" id="图层_1" xmlns="http://www.w3.org/2000/svg" xmlns:xlink="http://www.w3.org/1999/xlink" x="0px" y="0px"
	 viewBox="0 0 200 200" style="enable-background:new 0 0 200 200;" xml:space="preserve">
<style type="text/css">
	.st0{fill:#514262;}
</style>
<path class="st0" d="M48.8,92.9h15.7c8.7,0,15.7,6.4,15.7,14.2l0,0v3.5c0,7.8-7.1,14.2-15.7,14.2h-7.9V139h-7.9V92.9z M131.5,121.3
	V139h-7.9V92.9h27.6v7.1h-19.7v14.2h15.7v7.1H131.5L131.5,121.3z M119.7,29.1l51.2,46.1v81.5c0,7.8-7,14.2-15.7,14.2l0,0H44.8
	c-8.7,0-15.7-6.4-15.7-14.2V43.3c0-7.8,7-14.2,15.7-14.2H119.7z M119.6,75.2h40.2l-40.1-36.1L119.6,75.2z M163,156.7V82.3h-43.3
	c-4.3,0-7.9-3.2-7.9-7.1v-39h-67c-4.3,0-7.8,3.2-7.8,7.1v113.4c0,3.9,3.5,7.1,7.9,7.1h110.3C159.4,163.8,163,160.6,163,156.7
	L163,156.7z M84.3,92.9h11.8c10.9,0,19.7,7.9,19.7,17.7v10.6c0,9.8-8.8,17.7-19.7,17.7l0,0H84.3V92.9z M92.1,131.9h3.9
	c6.5,0,11.8-4.7,11.8-10.6v-10.6c0-5.9-5.3-10.6-11.8-10.6h-3.9V131.9z M56.7,100v17.7h7.9c4.3,0,7.9-3.2,7.9-7.1l0,0v-3.5
	c0-3.9-3.5-7.1-7.9-7.1l0,0H56.7z"/>
</svg>
