<?xml version="1.0" encoding="utf-8"?>
<!-- Generator: Adobe Illustrator 28.0.0, SVG Export Plug-In . SVG Version: 6.00 Build 0)  -->
<svg version="1.1" id="图层_1" xmlns="http://www.w3.org/2000/svg" xmlns:xlink="http://www.w3.org/1999/xlink" x="0px" y="0px"
	 viewBox="0 0 200 200" style="enable-background:new 0 0 200 200;" xml:space="preserve">
<style type="text/css">
	.st0{stroke:#FFFFFF;stroke-width:4;stroke-miterlimit:10;}
</style>
<path class="st0" d="M164.9,27.1c4.6,0,8.8,2,11.8,5.2c3.3,3.4,5.3,8.2,5.3,13.6v-0.1v0.1v108.4c0,10.4-7.7,18.8-17.2,18.8H35.3
	c-9.5,0-17.2-8.4-17.2-18.8V45.9c0-5.4,2-10.2,5.3-13.6c3.1-3.2,7.2-5.1,11.8-5.1h129.7V27.1z M170.6,89.7h-141v64.6
	c0,3.4,2.5,6.2,5.6,6.2h0.1h129.6c3.2,0,5.7-2.8,5.7-6.2L170.6,89.7L170.6,89.7z M164.9,39.6H35.3c-1.4,0-2.7,0.5-3.7,1.5
	c-1.3,1.2-2.1,2.9-2.1,4.8v31.3h141V45.9v-0.1c0-1.8-0.7-3.4-1.8-4.5l0,0l0,0C167.7,40.2,166.4,39.6,164.9,39.6z M46.7,50.1
	c4.2,0,7.6,3.7,7.6,8.3s-3.4,8.3-7.6,8.3s-7.6-3.7-7.6-8.3S42.5,50.1,46.7,50.1z M69.6,50.1c4.2,0,7.6,3.7,7.6,8.3s-3.4,8.3-7.6,8.3
	c-4.2,0-7.6-3.7-7.6-8.3C61.9,53.8,65.4,50.1,69.6,50.1z"/>
</svg>
